<svg xmlns="http://www.w3.org/2000/svg" xmlns:xlink="http://www.w3.org/1999/xlink" width="6912" zoomAndPan="magnify" viewBox="0 0 5184 935.999989" height="1248" preserveAspectRatio="xMidYMid meet" version="1.0"><defs><g/></defs><g fill="#29e0a6" fill-opacity="1"><g transform="translate(0.0000293538, 779.696467)"><g><path d="M 541.6875 0 L 31.859375 0 L 31.859375 -637.28125 L 541.6875 -637.28125 C 565.050781 -637.28125 586.425781 -631.566406 605.8125 -620.140625 C 625.195312 -608.722656 640.597656 -593.320312 652.015625 -573.9375 C 663.429688 -554.5625 669.140625 -533.1875 669.140625 -509.8125 L 669.140625 -127.453125 C 669.140625 -104.085938 663.429688 -82.710938 652.015625 -63.328125 C 640.597656 -43.941406 625.195312 -28.539062 605.8125 -17.125 C 586.425781 -5.707031 565.050781 0 541.6875 0 Z M 159.3125 -509.8125 L 159.3125 -127.453125 L 541.6875 -127.453125 L 541.6875 -509.8125 Z M 159.3125 -509.8125 "/></g></g></g><g fill="#29e0a6" fill-opacity="1"><g transform="translate(819.349739, 779.696467)"><g><path d="M 414.234375 0 L 286.78125 0 L 286.78125 -317.84375 C 286.78125 -335.894531 293.148438 -351.296875 305.890625 -364.046875 L 451.671875 -509.8125 L 31.859375 -509.8125 L 31.859375 -637.28125 L 605.40625 -637.28125 C 622.9375 -637.28125 637.941406 -631.035156 650.421875 -618.546875 C 662.898438 -606.066406 669.140625 -591.066406 669.140625 -573.546875 C 669.140625 -556.023438 662.765625 -540.890625 650.015625 -528.140625 L 414.234375 -292.34375 Z M 414.234375 0 "/></g></g></g><g fill="#ffffff" fill-opacity="1"><g transform="translate(1638.947289, 779.696467)"><g><path d="M 541.6875 0 L 31.859375 0 L 31.859375 -637.28125 L 541.6875 -637.28125 C 565.050781 -637.28125 586.425781 -631.566406 605.8125 -620.140625 C 625.195312 -608.722656 640.597656 -593.320312 652.015625 -573.9375 C 663.429688 -554.5625 669.140625 -533.1875 669.140625 -509.8125 L 669.140625 -127.453125 C 669.140625 -104.085938 663.429688 -82.710938 652.015625 -63.328125 C 640.597656 -43.941406 625.195312 -28.539062 605.8125 -17.125 C 586.425781 -5.707031 565.050781 0 541.6875 0 Z M 159.3125 -509.8125 L 159.3125 -127.453125 L 541.6875 -127.453125 L 541.6875 -509.8125 Z M 159.3125 -509.8125 "/></g></g></g><g fill="#ffffff" fill-opacity="1"><g transform="translate(2458.296999, 779.696467)"><g><path d="M 159.3125 -637.28125 L 541.6875 -637.28125 C 565.050781 -637.28125 586.425781 -631.566406 605.8125 -620.140625 C 625.195312 -608.722656 640.597656 -593.320312 652.015625 -573.9375 C 663.429688 -554.5625 669.140625 -533.1875 669.140625 -509.8125 L 669.140625 0 L 541.6875 0 L 541.6875 -254.90625 L 159.3125 -254.90625 L 159.3125 0 L 31.859375 0 L 31.859375 -509.8125 C 31.859375 -533.1875 37.566406 -554.5625 48.984375 -573.9375 C 60.410156 -593.320312 75.8125 -608.722656 95.1875 -620.140625 C 114.570312 -631.566406 135.945312 -637.28125 159.3125 -637.28125 Z M 159.3125 -509.8125 L 159.3125 -382.359375 L 541.6875 -382.359375 L 541.6875 -509.8125 Z M 159.3125 -509.8125 "/></g></g></g><g fill="#ffffff" fill-opacity="1"><g transform="translate(3277.646709, 779.696467)"><g><path d="M 669.140625 -637.28125 L 669.140625 -509.8125 L 414.234375 -509.8125 L 414.234375 0 L 286.78125 0 L 286.78125 -509.8125 L 31.859375 -509.8125 L 31.859375 -637.28125 Z M 669.140625 -637.28125 "/></g></g></g><g fill="#ffffff" fill-opacity="1"><g transform="translate(4096.996365, 779.696467)"><g><path d="M 159.3125 -637.28125 L 541.6875 -637.28125 C 565.050781 -637.28125 586.425781 -631.566406 605.8125 -620.140625 C 625.195312 -608.722656 640.597656 -593.320312 652.015625 -573.9375 C 663.429688 -554.5625 669.140625 -533.1875 669.140625 -509.8125 L 669.140625 0 L 541.6875 0 L 541.6875 -254.90625 L 159.3125 -254.90625 L 159.3125 0 L 31.859375 0 L 31.859375 -509.8125 C 31.859375 -533.1875 37.566406 -554.5625 48.984375 -573.9375 C 60.410156 -593.320312 75.8125 -608.722656 95.1875 -620.140625 C 114.570312 -631.566406 135.945312 -637.28125 159.3125 -637.28125 Z M 159.3125 -509.8125 L 159.3125 -382.359375 L 541.6875 -382.359375 L 541.6875 -509.8125 Z M 159.3125 -509.8125 "/></g></g></g></svg>