<svg xmlns="http://www.w3.org/2000/svg" xmlns:xlink="http://www.w3.org/1999/xlink" width="64" zoomAndPan="magnify" viewBox="0 0 48 48" height="64" preserveAspectRatio="xMidYMid meet" version="1.0"><defs><clipPath id="0936d05696"><path d="M 5.191406 10.34375 L 42.660156 10.34375 L 42.660156 36.792969 L 5.191406 36.792969 Z M 5.191406 10.34375 " clip-rule="nonzero"/></clipPath></defs><path fill="#eeeeee" d="M 7.066406 12.234375 L 40.785156 12.234375 L 40.785156 34.902344 L 7.066406 34.902344 Z M 7.066406 12.234375 " fill-opacity="1" fill-rule="nonzero"/><g clip-path="url(#0936d05696)"><path fill="#bd4b4b" d="M 40.785156 36.792969 L 7.066406 36.792969 C 6.816406 36.792969 6.578125 36.746094 6.351562 36.648438 C 6.121094 36.554688 5.917969 36.417969 5.742188 36.242188 C 5.566406 36.0625 5.429688 35.859375 5.335938 35.628906 C 5.242188 35.394531 5.191406 35.15625 5.195312 34.902344 L 5.195312 12.234375 C 5.191406 11.984375 5.242188 11.742188 5.335938 11.511719 C 5.429688 11.277344 5.566406 11.074219 5.742188 10.898438 C 5.917969 10.71875 6.121094 10.582031 6.351562 10.488281 C 6.578125 10.390625 6.816406 10.34375 7.066406 10.34375 L 40.785156 10.34375 C 41.035156 10.34375 41.273438 10.390625 41.503906 10.488281 C 41.734375 10.582031 41.933594 10.71875 42.109375 10.898438 C 42.285156 11.074219 42.421875 11.277344 42.515625 11.511719 C 42.613281 11.742188 42.660156 11.984375 42.660156 12.234375 L 42.660156 34.902344 C 42.660156 35.15625 42.613281 35.394531 42.515625 35.628906 C 42.421875 35.859375 42.285156 36.0625 42.109375 36.242188 C 41.933594 36.417969 41.734375 36.554688 41.503906 36.648438 C 41.273438 36.746094 41.035156 36.792969 40.785156 36.792969 Z M 8.941406 33.015625 L 38.914062 33.015625 L 38.914062 14.121094 L 8.941406 14.121094 Z M 8.941406 33.015625 " fill-opacity="1" fill-rule="nonzero"/></g><path fill="#bd4b4b" d="M 23.925781 25.457031 C 23.632812 25.457031 23.351562 25.390625 23.089844 25.257812 L 11.847656 19.589844 C 11.628906 19.480469 11.433594 19.328125 11.273438 19.140625 C 11.109375 18.949219 10.992188 18.734375 10.914062 18.5 C 10.835938 18.261719 10.804688 18.019531 10.820312 17.769531 C 10.839844 17.519531 10.902344 17.28125 11.015625 17.058594 C 11.125 16.835938 11.273438 16.640625 11.460938 16.476562 C 11.648438 16.3125 11.859375 16.191406 12.097656 16.113281 C 12.332031 16.03125 12.574219 16 12.820312 16.019531 C 13.066406 16.035156 13.300781 16.101562 13.523438 16.210938 L 23.925781 21.457031 L 34.328125 16.210938 C 34.550781 16.097656 34.785156 16.03125 35.035156 16.015625 C 35.28125 15.996094 35.523438 16.027344 35.761719 16.105469 C 35.996094 16.183594 36.207031 16.308594 36.398438 16.472656 C 36.585938 16.636719 36.734375 16.828125 36.847656 17.054688 C 36.957031 17.277344 37.023438 17.515625 37.039062 17.765625 C 37.054688 18.015625 37.027344 18.261719 36.945312 18.5 C 36.867188 18.738281 36.746094 18.949219 36.582031 19.140625 C 36.421875 19.328125 36.226562 19.480469 36.003906 19.589844 L 24.765625 25.257812 C 24.5 25.390625 24.222656 25.457031 23.925781 25.457031 Z M 23.925781 25.457031 " fill-opacity="1" fill-rule="nonzero"/><path fill="#bd4b4b" d="M 25.800781 31.125 L 22.054688 31.125 C 21.804688 31.125 21.566406 31.078125 21.335938 30.980469 C 21.105469 30.886719 20.902344 30.75 20.730469 30.574219 C 20.554688 30.394531 20.417969 30.191406 20.324219 29.960938 C 20.226562 29.726562 20.179688 29.488281 20.179688 29.238281 C 20.179688 28.984375 20.226562 28.746094 20.324219 28.511719 C 20.417969 28.28125 20.554688 28.078125 20.730469 27.902344 C 20.902344 27.722656 21.105469 27.585938 21.335938 27.492188 C 21.566406 27.394531 21.804688 27.347656 22.054688 27.347656 L 25.800781 27.347656 C 26.046875 27.347656 26.289062 27.394531 26.515625 27.492188 C 26.746094 27.585938 26.949219 27.722656 27.125 27.902344 C 27.300781 28.078125 27.433594 28.28125 27.53125 28.511719 C 27.625 28.746094 27.671875 28.984375 27.671875 29.238281 C 27.671875 29.488281 27.625 29.726562 27.53125 29.960938 C 27.433594 30.191406 27.300781 30.394531 27.125 30.574219 C 26.949219 30.75 26.746094 30.886719 26.515625 30.980469 C 26.289062 31.078125 26.046875 31.125 25.800781 31.125 Z M 25.800781 31.125 " fill-opacity="1" fill-rule="nonzero"/></svg>