<svg xmlns="http://www.w3.org/2000/svg" xmlns:xlink="http://www.w3.org/1999/xlink" width="64" zoomAndPan="magnify" viewBox="0 0 48 48" height="64" preserveAspectRatio="xMidYMid meet" version="1.0"><defs><clipPath id="02d1f62451"><path d="M 15.109375 4.703125 L 32.742188 4.703125 L 32.742188 42.171875 L 15.109375 42.171875 Z M 15.109375 4.703125 " clip-rule="nonzero"/></clipPath></defs><g clip-path="url(#02d1f62451)"><path fill="#ffffff" d="M 28.679688 10.910156 L 32.746094 10.910156 L 32.746094 4.746094 L 27.546875 4.746094 L 27.546875 4.769531 C 20.71875 5.015625 19.316406 8.867188 19.191406 12.925781 L 19.179688 12.925781 L 19.179688 17.203125 L 15.113281 17.203125 L 15.113281 23.371094 L 19.179688 23.371094 L 19.179688 42.128906 L 26.480469 42.128906 L 26.480469 23.371094 L 31.710938 23.371094 L 32.746094 17.203125 L 26.480469 17.203125 L 26.480469 13.378906 C 26.480469 12.015625 27.382812 10.910156 28.679688 10.910156 Z M 28.679688 10.910156 " fill-opacity="1" fill-rule="nonzero"/></g></svg>