<svg xmlns="http://www.w3.org/2000/svg" xmlns:xlink="http://www.w3.org/1999/xlink" width="64" zoomAndPan="magnify" viewBox="0 0 48 48" height="64" preserveAspectRatio="xMidYMid meet" version="1.0"><defs><clipPath id="b5ee1d32ea"><path d="M 5.191406 4.703125 L 42.660156 4.703125 L 42.660156 42.171875 L 5.191406 42.171875 Z M 5.191406 4.703125 " clip-rule="nonzero"/></clipPath></defs><g clip-path="url(#b5ee1d32ea)"><path fill="#ffffff" d="M 23.988281 8.09375 C 29.003906 8.09375 29.597656 8.109375 31.585938 8.199219 C 33.414062 8.28125 34.410156 8.585938 35.078125 8.851562 C 35.953125 9.1875 36.578125 9.601562 37.238281 10.261719 C 37.894531 10.917969 38.300781 11.546875 38.644531 12.417969 C 38.902344 13.078125 39.207031 14.074219 39.296875 15.914062 C 39.386719 17.898438 39.402344 18.492188 39.402344 23.507812 C 39.402344 28.527344 39.386719 29.121094 39.296875 31.105469 C 39.214844 32.9375 38.910156 33.933594 38.644531 34.601562 C 38.308594 35.472656 37.894531 36.101562 37.238281 36.757812 C 36.578125 37.417969 35.953125 37.824219 35.078125 38.167969 C 34.417969 38.425781 33.421875 38.730469 31.585938 38.820312 C 29.597656 38.910156 29.003906 38.925781 23.988281 38.925781 C 18.96875 38.925781 18.375 38.910156 16.390625 38.820312 C 14.5625 38.738281 13.5625 38.433594 12.894531 38.167969 C 12.023438 37.832031 11.398438 37.417969 10.738281 36.757812 C 10.078125 36.101562 9.675781 35.472656 9.328125 34.601562 C 9.074219 33.941406 8.769531 32.945312 8.675781 31.105469 C 8.585938 29.121094 8.570312 28.527344 8.570312 23.507812 C 8.570312 18.492188 8.585938 17.898438 8.675781 15.914062 C 8.757812 14.082031 9.066406 13.085938 9.328125 12.417969 C 9.667969 11.546875 10.078125 10.917969 10.738281 10.261719 C 11.398438 9.601562 12.023438 9.195312 12.894531 8.851562 C 13.554688 8.59375 14.550781 8.289062 16.390625 8.199219 C 18.375 8.109375 18.96875 8.09375 23.988281 8.09375 M 23.988281 4.707031 C 18.878906 4.707031 18.242188 4.730469 16.234375 4.820312 C 14.230469 4.914062 12.863281 5.234375 11.667969 5.695312 C 10.433594 6.171875 9.386719 6.816406 8.339844 7.863281 C 7.300781 8.910156 6.660156 9.953125 6.179688 11.191406 C 5.71875 12.386719 5.398438 13.753906 5.308594 15.757812 C 5.214844 17.757812 5.191406 18.402344 5.191406 23.5 C 5.191406 28.609375 5.214844 29.246094 5.308594 31.253906 C 5.398438 33.257812 5.71875 34.625 6.179688 35.820312 C 6.660156 37.054688 7.300781 38.101562 8.347656 39.148438 C 9.394531 40.195312 10.441406 40.839844 11.675781 41.316406 C 12.871094 41.777344 14.238281 42.097656 16.242188 42.191406 C 18.242188 42.28125 18.886719 42.304688 23.996094 42.304688 C 29.105469 42.304688 29.738281 42.28125 31.75 42.191406 C 33.75 42.097656 35.121094 41.777344 36.3125 41.316406 C 37.550781 40.839844 38.597656 40.195312 39.644531 39.148438 C 40.691406 38.101562 41.332031 37.054688 41.808594 35.820312 C 42.273438 34.625 42.59375 33.257812 42.683594 31.253906 C 42.773438 29.253906 42.800781 28.609375 42.800781 23.5 C 42.800781 18.394531 42.773438 17.757812 42.683594 15.746094 C 42.59375 13.746094 42.273438 12.378906 41.808594 11.183594 C 41.332031 9.945312 40.691406 8.898438 39.644531 7.855469 C 38.597656 6.808594 37.550781 6.164062 36.3125 5.6875 C 35.121094 5.226562 33.75 4.902344 31.75 4.8125 C 29.738281 4.730469 29.097656 4.707031 23.988281 4.707031 " fill-opacity="1" fill-rule="nonzero"/></g><path fill="#ffffff" d="M 23.988281 13.851562 C 18.65625 13.851562 14.339844 18.171875 14.339844 23.5 C 14.339844 28.832031 18.664062 33.160156 23.996094 33.160156 C 29.328125 33.160156 33.652344 28.839844 33.652344 23.5 C 33.644531 18.171875 29.320312 13.851562 23.988281 13.851562 M 23.988281 29.773438 C 20.527344 29.773438 17.726562 26.96875 17.726562 23.507812 C 17.726562 20.050781 20.527344 17.246094 23.988281 17.246094 C 27.449219 17.246094 30.25 20.050781 30.25 23.507812 C 30.257812 26.960938 27.449219 29.773438 23.988281 29.773438 " fill-opacity="1" fill-rule="nonzero"/><path fill="#ffffff" d="M 36.28125 13.472656 C 36.28125 14.71875 35.269531 15.730469 34.023438 15.730469 C 32.777344 15.730469 31.765625 14.71875 31.765625 13.472656 C 31.765625 12.230469 32.777344 11.214844 34.023438 11.214844 C 35.269531 11.214844 36.28125 12.222656 36.28125 13.472656 " fill-opacity="1" fill-rule="nonzero"/></svg>