<svg xmlns="http://www.w3.org/2000/svg" xmlns:xlink="http://www.w3.org/1999/xlink" width="64" zoomAndPan="magnify" viewBox="0 0 48 48" height="64" preserveAspectRatio="xMidYMid meet" version="1.0"><defs><clipPath id="cf62acc5e7"><path d="M 5.191406 4.703125 L 42.660156 4.703125 L 42.660156 42.171875 L 5.191406 42.171875 Z M 5.191406 4.703125 " clip-rule="nonzero"/></clipPath></defs><g clip-path="url(#cf62acc5e7)"><path fill="#ffffff" d="M 33.34375 4.71875 L 14.617188 4.71875 C 9.425781 4.71875 5.191406 8.953125 5.191406 14.140625 L 5.191406 32.898438 C 5.191406 38.058594 9.425781 42.292969 14.617188 42.292969 L 33.375 42.292969 C 38.5625 42.292969 42.800781 38.058594 42.800781 32.871094 L 42.800781 14.140625 C 42.769531 8.953125 38.535156 4.71875 33.34375 4.71875 Z M 17.71875 35.136719 L 12.347656 35.136719 L 12.347656 19.628906 L 17.71875 19.628906 Z M 15.003906 17.242188 C 13.484375 17.242188 12.261719 16.019531 12.261719 14.5 C 12.261719 12.976562 13.484375 11.753906 15.003906 11.753906 C 16.523438 11.753906 17.746094 12.976562 17.746094 14.5 C 17.71875 16.019531 16.496094 17.242188 15.003906 17.242188 Z M 35.613281 35.136719 L 31.136719 35.136719 L 31.136719 27.621094 C 31.136719 25.800781 30.898438 23.476562 28.425781 23.476562 C 25.890625 23.476562 25.472656 25.445312 25.472656 27.5 L 25.472656 35.136719 L 21 35.136719 L 21 19.628906 L 25.171875 19.628906 L 25.171875 21.714844 L 25.292969 21.714844 C 25.949219 20.523438 27.46875 19.597656 29.855469 19.597656 C 34.777344 19.597656 35.640625 22.433594 35.640625 26.636719 L 35.640625 35.136719 Z M 35.613281 35.136719 " fill-opacity="1" fill-rule="nonzero"/></g></svg>