<svg xmlns="http://www.w3.org/2000/svg" xmlns:xlink="http://www.w3.org/1999/xlink" width="64" zoomAndPan="magnify" viewBox="0 0 48 48" height="64" preserveAspectRatio="xMidYMid meet" version="1.0"><defs><clipPath id="9db33c855e"><path d="M 5.191406 8 L 42.660156 8 L 42.660156 39.441406 L 5.191406 39.441406 Z M 5.191406 8 " clip-rule="nonzero"/></clipPath></defs><g clip-path="url(#9db33c855e)"><path fill="#ffffff" d="M 38.914062 16.265625 C 38.9375 16.59375 38.9375 16.925781 38.9375 17.257812 C 38.9375 27.429688 31.195312 39.164062 17.035156 39.164062 L 17.035156 39.15625 C 12.851562 39.164062 8.753906 37.964844 5.234375 35.707031 C 5.84375 35.777344 6.453125 35.816406 7.066406 35.816406 C 10.53125 35.820312 13.898438 34.65625 16.628906 32.515625 C 13.332031 32.453125 10.445312 30.304688 9.433594 27.167969 C 10.589844 27.390625 11.777344 27.34375 12.910156 27.035156 C 9.320312 26.308594 6.734375 23.15625 6.734375 19.488281 C 6.734375 19.457031 6.734375 19.425781 6.734375 19.390625 C 7.804688 19.988281 9.003906 20.320312 10.230469 20.355469 C 6.847656 18.097656 5.804688 13.597656 7.847656 10.078125 C 11.753906 14.886719 17.523438 17.8125 23.710938 18.121094 C 23.09375 15.445312 23.941406 12.644531 25.941406 10.765625 C 29.039062 7.851562 33.917969 8 36.832031 11.097656 C 38.554688 10.757812 40.207031 10.125 41.71875 9.230469 C 41.144531 11.011719 39.941406 12.527344 38.335938 13.488281 C 39.863281 13.308594 41.351562 12.898438 42.757812 12.277344 C 41.722656 13.824219 40.421875 15.175781 38.914062 16.265625 Z M 38.914062 16.265625 " fill-opacity="1" fill-rule="nonzero"/></g></svg>