<svg xmlns="http://www.w3.org/2000/svg" xmlns:xlink="http://www.w3.org/1999/xlink" width="64" zoomAndPan="magnify" viewBox="0 0 48 48" height="64" preserveAspectRatio="xMidYMid meet" version="1.0"><defs><clipPath id="d3892167ff"><path d="M 5.660156 4.703125 L 42.398438 4.703125 L 42.398438 42 L 5.660156 42 Z M 5.660156 4.703125 " clip-rule="nonzero"/></clipPath></defs><g clip-path="url(#d3892167ff)"><path fill="#278d46" d="M 42.394531 22.972656 C 42.394531 33.054688 34.171875 41.234375 24.03125 41.234375 C 21.019531 41.238281 18.175781 40.542969 15.507812 39.148438 C 15.5 39.152344 15.492188 39.15625 15.484375 39.160156 L 9.949219 41.445312 C 8.21875 42.164062 6.472656 40.457031 7.15625 38.722656 L 9.152344 33.675781 C 8.015625 32.121094 7.152344 30.429688 6.554688 28.597656 C 5.960938 26.769531 5.664062 24.894531 5.667969 22.972656 C 5.667969 12.886719 13.890625 4.707031 24.03125 4.707031 C 34.171875 4.707031 42.394531 12.886719 42.394531 22.972656 Z M 42.394531 22.972656 " fill-opacity="1" fill-rule="nonzero"/></g><path fill="#ffffff" d="M 40.011719 22.972656 C 40.011719 23.492188 39.988281 24.011719 39.9375 24.527344 C 39.882812 25.046875 39.808594 25.5625 39.707031 26.070312 C 39.605469 26.582031 39.476562 27.085938 39.324219 27.585938 C 39.171875 28.082031 38.996094 28.570312 38.796875 29.050781 C 38.597656 29.535156 38.371094 30.003906 38.125 30.460938 C 37.878906 30.921875 37.609375 31.367188 37.320312 31.800781 C 37.027344 32.234375 36.71875 32.652344 36.386719 33.054688 C 36.054688 33.457031 35.703125 33.839844 35.332031 34.207031 C 34.960938 34.578125 34.574219 34.925781 34.171875 35.257812 C 33.765625 35.585938 33.34375 35.894531 32.910156 36.183594 C 32.476562 36.472656 32.027344 36.742188 31.566406 36.988281 C 31.105469 37.230469 30.632812 37.453125 30.148438 37.652344 C 29.664062 37.851562 29.171875 38.027344 28.671875 38.179688 C 28.171875 38.332031 27.664062 38.457031 27.148438 38.558594 C 26.636719 38.660156 26.117188 38.734375 25.597656 38.785156 C 25.078125 38.839844 24.554688 38.863281 24.03125 38.863281 C 23.507812 38.863281 22.984375 38.839844 22.464844 38.785156 C 21.945312 38.734375 21.425781 38.660156 20.914062 38.558594 C 20.402344 38.457031 19.894531 38.332031 19.394531 38.179688 C 18.890625 38.027344 18.398438 37.851562 17.917969 37.652344 C 17.433594 37.453125 16.960938 37.230469 16.5 36.988281 C 16.035156 36.742188 15.589844 36.472656 15.152344 36.183594 C 14.71875 35.894531 14.296875 35.585938 13.894531 35.257812 C 13.488281 34.925781 13.101562 34.578125 12.730469 34.207031 C 12.363281 33.839844 12.011719 33.457031 11.679688 33.054688 C 11.347656 32.652344 11.035156 32.234375 10.742188 31.800781 C 10.453125 31.367188 10.183594 30.921875 9.9375 30.460938 C 9.691406 30.003906 9.46875 29.535156 9.265625 29.050781 C 9.066406 28.570312 8.890625 28.082031 8.738281 27.585938 C 8.585938 27.085938 8.460938 26.582031 8.359375 26.070312 C 8.253906 25.5625 8.179688 25.046875 8.128906 24.527344 C 8.078125 24.011719 8.050781 23.492188 8.050781 22.972656 C 8.050781 22.449219 8.078125 21.929688 8.128906 21.414062 C 8.179688 20.894531 8.253906 20.378906 8.359375 19.871094 C 8.460938 19.359375 8.585938 18.855469 8.738281 18.355469 C 8.890625 17.859375 9.066406 17.371094 9.265625 16.890625 C 9.46875 16.40625 9.691406 15.9375 9.9375 15.480469 C 10.183594 15.019531 10.453125 14.574219 10.742188 14.140625 C 11.035156 13.707031 11.347656 13.289062 11.679688 12.886719 C 12.011719 12.484375 12.363281 12.101562 12.730469 11.734375 C 13.101562 11.363281 13.488281 11.015625 13.894531 10.6875 C 14.296875 10.355469 14.71875 10.046875 15.152344 9.757812 C 15.589844 9.46875 16.035156 9.199219 16.5 8.953125 C 16.960938 8.710938 17.433594 8.488281 17.917969 8.289062 C 18.398438 8.089844 18.890625 7.914062 19.394531 7.761719 C 19.894531 7.613281 20.402344 7.484375 20.914062 7.382812 C 21.425781 7.28125 21.945312 7.207031 22.464844 7.15625 C 22.984375 7.105469 23.507812 7.078125 24.03125 7.078125 C 24.554688 7.078125 25.078125 7.105469 25.597656 7.15625 C 26.117188 7.207031 26.636719 7.28125 27.148438 7.382812 C 27.664062 7.484375 28.171875 7.613281 28.671875 7.761719 C 29.171875 7.914062 29.664062 8.089844 30.148438 8.289062 C 30.632812 8.488281 31.105469 8.710938 31.566406 8.953125 C 32.027344 9.199219 32.476562 9.46875 32.910156 9.757812 C 33.34375 10.046875 33.765625 10.355469 34.171875 10.6875 C 34.574219 11.015625 34.960938 11.363281 35.332031 11.734375 C 35.703125 12.101562 36.054688 12.484375 36.386719 12.886719 C 36.71875 13.289062 37.027344 13.707031 37.320312 14.140625 C 37.609375 14.574219 37.878906 15.019531 38.125 15.480469 C 38.371094 15.9375 38.597656 16.40625 38.796875 16.890625 C 38.996094 17.371094 39.171875 17.859375 39.324219 18.355469 C 39.476562 18.855469 39.605469 19.359375 39.707031 19.871094 C 39.808594 20.378906 39.882812 20.894531 39.9375 21.414062 C 39.988281 21.929688 40.011719 22.449219 40.011719 22.972656 Z M 40.011719 22.972656 " fill-opacity="1" fill-rule="nonzero"/><path fill="#278d46" d="M 37.773438 22.972656 C 37.773438 23.867188 37.6875 24.757812 37.511719 25.636719 C 37.335938 26.515625 37.074219 27.371094 36.726562 28.199219 C 36.382812 29.03125 35.960938 29.816406 35.457031 30.5625 C 34.957031 31.308594 34.386719 32 33.75 32.632812 C 33.109375 33.269531 32.417969 33.835938 31.667969 34.335938 C 30.917969 34.832031 30.125 35.253906 29.289062 35.597656 C 28.457031 35.941406 27.597656 36.199219 26.710938 36.375 C 25.828125 36.550781 24.933594 36.636719 24.03125 36.636719 C 23.128906 36.636719 22.234375 36.550781 21.351562 36.375 C 20.464844 36.199219 19.605469 35.941406 18.773438 35.597656 C 17.9375 35.253906 17.148438 34.832031 16.398438 34.335938 C 15.644531 33.835938 14.953125 33.269531 14.3125 32.632812 C 13.675781 32 13.105469 31.308594 12.605469 30.5625 C 12.105469 29.816406 11.679688 29.03125 11.335938 28.199219 C 10.988281 27.371094 10.730469 26.515625 10.554688 25.636719 C 10.378906 24.757812 10.289062 23.867188 10.289062 22.972656 C 10.289062 22.074219 10.378906 21.183594 10.554688 20.304688 C 10.730469 19.425781 10.988281 18.570312 11.335938 17.742188 C 11.679688 16.910156 12.105469 16.125 12.605469 15.378906 C 13.105469 14.632812 13.675781 13.941406 14.3125 13.308594 C 14.953125 12.671875 15.644531 12.105469 16.398438 11.605469 C 17.148438 11.109375 17.9375 10.6875 18.773438 10.34375 C 19.605469 10 20.464844 9.742188 21.351562 9.566406 C 22.234375 9.390625 23.128906 9.304688 24.03125 9.304688 C 24.933594 9.304688 25.828125 9.390625 26.710938 9.566406 C 27.597656 9.742188 28.457031 10 29.289062 10.34375 C 30.125 10.6875 30.917969 11.109375 31.667969 11.605469 C 32.417969 12.105469 33.109375 12.671875 33.75 13.308594 C 34.386719 13.941406 34.957031 14.632812 35.457031 15.378906 C 35.960938 16.125 36.382812 16.910156 36.726562 17.742188 C 37.074219 18.570312 37.335938 19.425781 37.511719 20.304688 C 37.6875 21.183594 37.773438 22.074219 37.773438 22.972656 Z M 37.773438 22.972656 " fill-opacity="1" fill-rule="nonzero"/><path fill="#ffffff" d="M 22.265625 18.507812 L 21.730469 16.261719 C 21.671875 16 21.558594 15.765625 21.394531 15.554688 C 21.230469 15.34375 21.03125 15.171875 20.796875 15.046875 C 20.5625 14.917969 20.308594 14.847656 20.042969 14.828125 C 19.777344 14.804688 19.515625 14.839844 19.265625 14.929688 L 18.03125 15.375 C 17.617188 15.523438 17.292969 15.78125 17.066406 16.15625 C 16.835938 16.527344 16.746094 16.929688 16.800781 17.367188 C 17.230469 20.839844 19.210938 29.242188 28.308594 31.085938 C 28.675781 31.160156 29.035156 31.128906 29.386719 30.988281 C 29.734375 30.851562 30.019531 30.625 30.234375 30.316406 L 30.941406 29.300781 C 31.082031 29.097656 31.179688 28.875 31.234375 28.632812 C 31.285156 28.386719 31.289062 28.144531 31.246094 27.902344 C 31.199219 27.65625 31.109375 27.429688 30.976562 27.222656 C 30.839844 27.011719 30.667969 26.839844 30.464844 26.699219 L 30.453125 26.6875 L 28.898438 25.636719 C 28.550781 25.402344 28.167969 25.292969 27.75 25.3125 C 27.332031 25.332031 26.960938 25.476562 26.640625 25.738281 C 26.320312 26.003906 25.953125 26.144531 25.535156 26.167969 C 25.121094 26.1875 24.738281 26.082031 24.394531 25.851562 C 23.449219 25.21875 22.167969 24.167969 21.335938 22.710938 C 21.144531 22.375 21.0625 22.015625 21.09375 21.632812 C 21.125 21.246094 21.261719 20.90625 21.503906 20.605469 L 21.902344 20.109375 C 22.285156 19.636719 22.410156 19.101562 22.265625 18.507812 Z M 22.265625 18.507812 " fill-opacity="1" fill-rule="nonzero"/></svg>